#!OML:ASF F:\VICON\USERDATA\INSTALL\rory3\rory3.ASF
:FULLY-SPECIFIED
:DEGREES
427
root 1.71067 18.6113 1.57657 -4.78201 -12.2625 2.76126
lowerback -2.0482 -3.55668 -5.4771
upperback -0.657416 -4.63881 1.06292
thorax 0.991209 -2.33398 4.00362
lowerneck -7.42771 -0.181183 -5.64663
upperneck 15.5375 -1.38832 11.558
head 6.00588 -0.17378 4.53068
rclavicle 5.1684e-014 1.59028e-014
rhumerus 35.2943 32.4313 -58.0197
rradius 142.422
rwrist -84.4258
rhand -51.078 -39.2629
rfingers 7.12502
rthumb -23.6234 -67.8317
lclavicle 5.1684e-014 1.59028e-014
lhumerus 56.6919 -6.98456 49.8844
lradius 30.7467
lwrist -16.4526
lhand -15.6016 29.1932
lfingers 7.12502
lthumb 10.5845 58.9067
rfemur -9.1641 22.0922 15.3855
rtibia 30.5446
rfoot -16.2594 -9.62509
rtoes -7.84498
lfemur 7.32464 5.23627 -19.3142
ltibia 31.1236
lfoot -17.005 13.4255
ltoes -20.9452
428
root 1.66308 18.6158 1.59824 -4.80031 -12.3277 2.77701
lowerback -2.01804 -3.4483 -5.2666
upperback -0.657185 -4.49969 1.00476
thorax 0.93843 -2.26228 3.83506
lowerneck -7.3268 -0.214791 -5.64995
upperneck 15.6204 -1.44322 11.5464
head 6.01891 -0.203037 4.52476
rclavicle 2.28602e-015 4.77083e-015
rhumerus 34.4843 32.5957 -57.9556
rradius 142.275
rwrist -83.3933
rhand -50.6136 -38.3508
rfingers 7.12502
rthumb -23.1779 -66.9763
lclavicle 2.28602e-015 4.77083e-015
lhumerus 55.0093 -7.73812 49.377
lradius 33.2165
lwrist -14.8521
lhand -15.3514 28.8406
lfingers 7.12502
lthumb 10.8258 58.5416
rfemur -8.98089 21.9317 15.5338
rtibia 30.4452
rfoot -16.3684 -9.35276
rtoes -7.54541
lfemur 6.87047 5.82075 -18.8524
ltibia 32.1085
lfoot -16.2843 12.7576
ltoes -21.3919
429
root 1.6077 18.617 1.61652 -4.94618 -12.5833 2.29002
lowerback -1.72232 -3.32542 -4.7039
upperback -0.553851 -4.36109 1.12594
thorax 0.832611 -2.19173 3.66746
lowerneck -7.31525 -0.198546 -5.61392
upperneck 15.714 -1.4253 11.4903
head 6.04406 -0.195008 4.50359
rclavicle 0 1.59028e-014
rhumerus 33.7729 32.8157 -57.8824
rradius 142.152
rwrist -82.4482
rhand -49.6679 -36.5884
rfingers 7.12502
rthumb -22.2703 -65.3251
lclavicle 0 1.59028e-014
lhumerus 53.0363 -8.3212 49.065
lradius 36.0251
lwrist -13.5139
lhand -15.6959 28.5051
lfingers 7.12502
lthumb 10.4935 58.2231
rfemur -8.55929 22.1772 16.414
rtibia 30.3657
rfoot -16.4104 -9.36404
rtoes -7.0588
lfemur 6.63577 6.52542 -17.7442
ltibia 33.1648
lfoot -15.5897 11.9931
ltoes -21.3992
430
root 1.56594 18.618 1.63436 -5.02864 -12.4045 2.77508
lowerback -1.71336 -3.32793 -4.90848
upperback -0.518329 -4.35883 0.916493
thorax 0.862722 -2.1918 3.5651
lowerneck -7.20613 -0.197136 -5.58215
upperneck 15.6644 -1.41654 11.4291
head 6.00812 -0.197266 4.47684
rclavicle 7.93648e-014 -7.55382e-015
rhumerus 32.9042 33.0287 -57.89
rradius 142.044
rwrist -81.5974
rhand -48.9388 -34.7146
rfingers 7.12502
rthumb -21.5702 -63.5333
lclavicle 7.93648e-014 -7.55382e-015
lhumerus 51.0739 -8.97327 48.6704
lradius 38.861
lwrist -12.1988
lhand -16.2213 28.3714
lfingers 7.12502
lthumb 9.98664 58.1145
rfemur -8.426 21.7046 15.9811
rtibia 30.3365
rfoot -16.5219 -9.01834
rtoes -6.72543
lfemur 6.0677 6.94523 -17.8486
ltibia 34.2415
lfoot -14.7703 11.3814
ltoes -21.8298
431
root 1.52107 18.6189 1.65557 -5.1309 -12.2509 3.11422
lowerback -1.68682 -3.28532 -4.93688
upperback -0.470842 -4.30038 0.733082
thorax 0.878933 -2.16339 3.39449
lowerneck -7.07336 -0.240295 -5.62319
upperneck 15.6127 -1.46533 11.4015
head 5.97303 -0.229932 4.46941
rclavicle -1.01877e-014 -5.1684e-015
rhumerus 31.8014 33.2714 -57.9483
rradius 141.861
rwrist -80.8009
rhand -49.0716 -34.1302
rfingers 7.12502
rthumb -21.6978 -62.9343
lclavicle -1.01877e-014 -5.1684e-015
lhumerus 49.1336 -9.80448 48.1307
lradius 41.7008
lwrist -10.802
lhand -16.4923 28.227
lfingers 7.12502
lthumb 9.72523 57.9824
rfemur -8.21732 21.326 15.7631
rtibia 30.3148
rfoot -16.6697 -8.75592
rtoes -6.3794
lfemur 5.50757 7.35682 -17.7563
ltibia 35.3831
lfoot -13.7956 10.8559
ltoes -22.1895
432
root 1.47175 18.6204 1.67623 -5.20324 -12.2484 3.23128
lowerback -1.60387 -3.19408 -4.80054
upperback -0.426962 -4.18367 0.629846
thorax 0.849033 -2.10454 3.2206
lowerneck -6.9688 -0.260259 -5.60381
upperneck 15.6039 -1.48769 11.3399
head 5.95357 -0.247101 4.44354
rclavicle -1.39149e-015 -1.11319e-014
rhumerus 30.6057 33.528 -58.0707
rradius 141.663
rwrist -80.2358
rhand -49.348 -34.8737
rfingers 7.12502
rthumb -21.9632 -63.6469
lclavicle -1.39149e-015 -1.11319e-014
lhumerus 46.9796 -10.5748 47.8878
lradius 44.7646
lwrist -9.60444
lhand -16.6333 27.8904
lfingers 7.12502
lthumb 9.58916 57.6522
rfemur -8.05457 21.1136 15.8268
rtibia 30.341
rfoot -16.7891 -8.56886
rtoes -6.26424
lfemur 4.93585 7.85727 -17.3831
ltibia 36.5548
lfoot -12.7278 10.4592
ltoes -23.3208
433
root 1.4224 18.6215 1.69648 -5.29145 -12.3697 3.25129
lowerback -1.41035 -3.08112 -4.6435
upperback -0.410909 -4.04512 0.61422
thorax 0.732525 -2.03251 3.13316
lowerneck -6.81491 -0.238329 -5.68716
upperneck 15.6264 -1.46201 11.3932
head 5.93126 -0.239767 4.47662
rclavicle -2.04748e-014 1.27222e-014
rhumerus 29.2829 33.8277 -58.2512
rradius 141.452
rwrist -79.8631
rhand -49.1948 -34.9687
rfingers 7.12502
rthumb -21.8161 -63.7591
lclavicle -2.04748e-014 1.27222e-014
lhumerus 44.7725 -11.2844 47.9513
lradius 47.5964
lwrist -8.79866
lhand -17.0263 27.4243
lfingers 7.12502
lthumb 9.20996 57.2032
rfemur -7.86862 21.0444 16.0216
rtibia 30.3243
rfoot -16.8398 -8.43031
rtoes -6.02448
lfemur 4.35026 8.48066 -16.8688
ltibia 37.8517
lfoot -11.9209 9.87203
ltoes -25.0725
434
root 1.37413 18.6223 1.71476 -5.36251 -12.5164 3.11218
lowerback -1.19783 -2.965 -4.28197
upperback -0.347182 -3.90424 0.613526
thorax 0.642458 -1.96057 2.94584
lowerneck -6.70692 -0.245717 -5.64159
upperneck 15.6295 -1.46816 11.3086
head 5.91327 -0.249095 4.44016
rclavicle -2.37051e-014 -3.97569e-015
rhumerus 27.8701 34.1037 -58.479
rradius 141.152
rwrist -79.4486
rhand -48.5493 -33.2674
rfingers 7.12502
rthumb -21.1961 -62.1286
lclavicle -2.37051e-014 -3.97569e-015
lhumerus 42.7886 -12.1172 47.6653
lradius 49.9966
lwrist -7.92113
lhand -17.7218 27.052
lfingers 7.12502
lthumb 8.53879 56.8594
rfemur -7.66572 20.9688 16.4041
rtibia 30.3026
rfoot -16.8286 -8.31085
rtoes -6.17032
lfemur 3.71006 9.1353 -16.1545
ltibia 39.2445
lfoot -11.0486 9.11155
ltoes -25.4207
435
root 1.32805 18.6224 1.72671 -5.38192 -12.542 2.95281
lowerback -1.05202 -2.87682 -3.8741
upperback -0.195144 -3.79515 0.588006
thorax 0.679864 -1.90837 2.69881
lowerneck -6.76559 -0.263177 -5.56864
upperneck 15.5825 -1.48166 11.2279
head 5.90988 -0.255823 4.39976
rclavicle 5.52124e-014 6.75868e-015
rhumerus 26.4855 34.3429 -58.6164
rradius 140.699
rwrist -78.6991
rhand -47.9288 -32.0244
rfingers 7.12502
rthumb -20.6 -60.9513
lclavicle 5.52124e-014 6.75868e-015
lhumerus 40.8033 -12.7958 47.6832
lradius 52.4859
lwrist -7.14538
lhand -18.3268 26.5977
lfingers 7.12502
lthumb 7.9549 56.4281
rfemur -7.53075 20.8648 16.7791
rtibia 30.302
rfoot -16.8517 -8.25139
rtoes -6.16469
lfemur 2.91285 9.67902 -15.442
ltibia 40.7171
lfoot -9.68542 8.33474
ltoes -23.909
436
root 1.28367 18.6192 1.7376 -5.4287 -12.5208 2.92453
lowerback -0.921227 -2.83466 -3.6127
upperback -0.0428039 -3.7445 0.545708
thorax 0.73966 -1.88562 2.51345
lowerneck -6.75225 -0.220162 -5.60327
upperneck 15.4857 -1.40841 11.2258
head 5.87083 -0.224032 4.40786
rclavicle -2.16178e-014 7.15625e-015
rhumerus 25.0842 34.6104 -58.8542
rradius 140.058
rwrist -77.9912
rhand -47.6175 -31.2517
rfingers 7.12502
rthumb -20.3008 -60.2107
lclavicle -2.16178e-014 7.15625e-015
lhumerus 38.5091 -13.2483 48.1986
lradius 55.1213
lwrist -6.97016
lhand -18.7159 25.7564
lfingers 7.12502
lthumb 7.57942 55.6006
rfemur -7.40391 20.7136 16.9912
rtibia 30.3168
rfoot -16.9361 -8.15203
rtoes -5.99759
lfemur 2.07837 10.1627 -14.89
ltibia 42.2423
lfoot -8.17759 7.59598
ltoes -22.1944
437
root 1.24029 18.6167 1.74961 -5.48589 -12.558 2.90232
lowerback -0.625388 -2.8126 -3.42844
upperback -0.00469847 -3.72757 0.565215
thorax 0.601455 -1.87482 2.44616
lowerneck -6.61881 -0.149707 -5.71512
upperneck 15.4355 -1.29557 11.22
head 5.82144 -0.180538 4.43089
rclavicle -3.28989e-014 6.36111e-015
rhumerus 23.4339 35.0068 -59.381
rradius 139.432
rwrist -77.2927
rhand -47.4624 -30.1888
rfingers 7.12502
rthumb -20.1518 -59.1636
lclavicle -3.28989e-014 6.36111e-015
lhumerus 36.058 -13.7942 48.5427
lradius 57.613
lwrist -6.7798
lhand -19.2344 25.0048
lfingers 7.12502
lthumb 7.07888 54.8665
rfemur -7.26957 20.5713 17.1971
rtibia 30.3513
rfoot -17.0132 -8.0512
rtoes -5.95103
lfemur 1.22357 10.6653 -14.3418
ltibia 43.8192
lfoot -6.88571 6.99497
ltoes -22.0709
438
root 1.1976 18.6142 1.75861 -5.55872 -12.6308 2.82349
lowerback -0.205064 -2.77166 -3.18098
upperback 0.0257695 -3.68877 0.58475
thorax 0.380379 -1.85162 2.35094
lowerneck -6.62015 -0.103466 -5.76118
upperneck 15.5463 -1.23205 11.2003
head 5.85021 -0.151888 4.43913
rclavicle -5.4467e-014 1.59028e-015
rhumerus 21.4761 35.5277 -60.0528
rradius 138.896
rwrist -75.8189
rhand -47.077 -29.176
rfingers 7.12502
rthumb -19.7813 -58.1894
lclavicle -5.4467e-014 1.59028e-015
lhumerus 33.5872 -14.4146 48.7629
lradius 60.0256
lwrist -6.39655
lhand -19.922 23.8574
lfingers 7.12502
lthumb 6.4151 53.7402
rfemur -7.12656 20.5549 17.4812
rtibia 30.4095
rfoot -17.1034 -7.97898
rtoes -5.85996
lfemur 0.340259 11.1735 -13.7232
ltibia 45.4278
lfoot -5.60355 6.52418
ltoes -23.2862
439
root 1.1556 18.6123 1.766 -5.55317 -12.6026 2.73868
lowerback 0.0215842 -2.77434 -2.93166
upperback 0.135793 -3.69891 0.609595
thorax 0.352844 -1.85727 2.24618
lowerneck -6.72497 -0.0554229 -5.83499
upperneck 15.642 -1.16261 11.216
head 5.89217 -0.116714 4.46452
rclavicle -5.85421e-014 5.1684e-015
rhumerus 19.606 36.1052 -60.5722
rradius 138.356
rwrist -73.2715
rhand -46.0935 -28.0998
rfingers 7.12502
rthumb -18.8357 -57.2078
lclavicle -5.85421e-014 5.1684e-015
lhumerus 31.0043 -14.8952 49.2021
lradius 62.4901
lwrist -6.03494
lhand -20.4753 22.6945
lfingers 7.12502
lthumb 5.88099 52.5929
rfemur -7.08601 20.4283 17.7165
rtibia 30.4702
rfoot -17.1747 -7.85535
rtoes -5.59131
lfemur -0.713908 11.5395 -13.1465
ltibia 47.0689
lfoot -4.01936 6.11442
ltoes -23.8025
440
root 1.11647 18.6085 1.77616 -5.60569 -12.4932 2.75517
lowerback 0.171898 -2.80268 -2.73891
upperback 0.30142 -3.73951 0.584763
thorax 0.426976 -1.88016 2.11588
lowerneck -6.70241 0.00499789 -5.79662
upperneck 15.5802 -1.05695 11.0781
head 5.85904 -0.0741791 4.41858
rclavicle -5.71506e-015 -1.47101e-014
rhumerus 17.8831 36.5695 -61.0956
rradius 137.616
rwrist -69.9493
rhand -44.8316 -27.3868
rfingers 7.12502
rthumb -17.6216 -56.6082
lclavicle -5.71506e-015 -1.47101e-014
lhumerus 28.3591 -15.358 49.749
lradius 64.9372
lwrist -5.62785
lhand -20.6382 22.4831
lfingers 7.12502
lthumb 5.72362 52.3858
rfemur -6.97412 20.1037 17.8212
rtibia 30.5243
rfoot -17.3149 -7.64396
rtoes -5.28272
lfemur -1.75111 11.8116 -12.7075
ltibia 48.725
lfoot -2.01555 5.77876
ltoes -21.4012
